<svg xmlns="http://www.w3.org/2000/svg" version="1.1" xmlns:xlink="http://www.w3.org/1999/xlink" xmlns:svgjs="http://svgjs.dev/svgjs" width="1920" height="1080" preserveAspectRatio="none" viewBox="0 0 1920 1080" style="background-color: black;">
    <g mask="url(&quot;#SvgjsMask2033&quot;)" fill="none">
        <rect width="1920" height="1080" x="0" y="0" fill="url(&quot;#SvgjsRadialGradient2034&quot;)"></rect>
        <path d="M1747.22,490.738C1820.115,489.403,1884.191,446.783,1921.091,383.903C1958.486,320.179,1963.201,243.901,1931.133,177.337C1893.904,100.062,1832.978,21.277,1747.22,23.003C1663.072,24.696,1613.585,109.335,1575.696,184.489C1542.492,250.35,1525.912,326.131,1561.954,390.483C1598.73,456.145,1671.974,492.117,1747.22,490.738" fill="rgba(0, 255, 72, 0.14)" class="triangle-float3"></path>
        <path d="M326.406,588.653C415.136,588.863,487.926,522.967,528.233,443.921C564.897,372.02,552.818,289.802,515.209,218.391C474.256,140.632,414.205,64.564,326.406,60.705C233.41,56.617,149.669,117.963,106.486,200.426C66.154,277.445,83.374,367.325,126.225,442.971C169.822,519.933,237.954,588.444,326.406,588.653" fill="rgba(0, 255, 72, 0.14)" class="triangle-float3"></path>
        <path d="M1081.747,166.241C1108.775,165.158,1135.305,156.306,1150.087,133.652C1166.351,108.727,1171.151,76.923,1157.171,50.649C1142.394,22.876,1113.206,5.295,1081.747,5.208C1050.142,5.12,1021.546,22.945,1005.595,50.229C989.486,77.783,985.697,112.854,1003.212,139.537C1019.474,164.311,1052.136,167.428,1081.747,166.241" fill="rgba(0, 255, 72, 0.14)" class="triangle-float2"></path>
        <path d="M183.752,459.755C275.774,466.387,382.439,459.726,429.489,380.364C477.071,300.105,434.494,201.276,383.201,123.336C337.848,54.422,266.251,6.896,183.752,6.963C101.368,7.03,25.074,51.755,-15.135,123.66C-54.428,193.928,-48.442,279.588,-7.442,348.874C32.772,416.83,104.993,454.079,183.752,459.755" fill="rgba(0, 255, 72, 0.14)" class="triangle-float1"></path>
        <path d="M1221.294,1173.044C1314.418,1173.994,1414.295,1150.909,1460.838,1070.244C1507.365,989.607,1481.061,889.284,1429.9,811.505C1384.01,741.74,1304.787,707.506,1221.294,706.074C1134.804,704.59,1046.719,731.383,999.912,804.128C949.36,882.695,941.993,985.336,990.065,1065.444C1036.949,1143.573,1130.182,1172.115,1221.294,1173.044" fill="rgba(0, 255, 72, 0.14)" class="triangle-float3"></path>
        <path d="M1486.741,567.092C1546.92,569.549,1615.396,562.863,1645.642,510.78C1675.967,458.561,1648.394,395.377,1616.088,344.36C1586.556,297.723,1541.809,263.674,1486.741,259.847C1423.738,255.468,1353.572,269.229,1321.989,323.92C1290.402,378.617,1313.4,446.372,1348.827,498.663C1379.678,544.199,1431.784,564.848,1486.741,567.092" fill="rgba(0, 255, 72, 0.14)" class="triangle-float3"></path>
        <path d="M2005.069,821.748C2112.71,823.785,2199.585,745.002,2254.213,652.231C2309.824,557.792,2340.159,441.471,2284.638,346.979C2229.662,253.415,2113.559,225.657,2005.069,228.212C1901.763,230.644,1798.064,269.56,1747.41,359.629C1697.584,448.226,1722.24,554.321,1771.74,643.101C1822.867,734.799,1900.1,819.762,2005.069,821.748" fill="rgba(0, 255, 72, 0.14)" class="triangle-float1"></path>
        <path d="M1885.725,1188.88C1940.448,1190.258,1996.935,1170.71,2024.163,1123.222C2051.278,1075.932,2039.202,1017.6,2010.504,971.254C1983.445,927.555,1936.974,903.562,1885.725,899.652C1825.1,895.027,1753.649,896.835,1722.95,949.317C1692.097,1002.062,1724.516,1065.999,1758.858,1116.542C1788.181,1159.698,1833.567,1187.567,1885.725,1188.88" fill="rgba(0, 255, 72, 0.14)" class="triangle-float2"></path>
        <path d="M1622.933,1216.52C1699.204,1212.183,1758.437,1156.956,1795.378,1090.087C1830.912,1025.765,1840.291,949.812,1806.251,884.687C1769.576,814.521,1702.062,762.813,1622.933,760.17C1539.344,757.378,1459.998,799.892,1417.1,871.688C1373.085,945.352,1368.826,1038.157,1412.808,1111.841C1455.795,1183.857,1539.198,1221.281,1622.933,1216.52" fill="rgba(0, 255, 72, 0.14)" class="triangle-float2"></path>
    </g>
    <defs>
        <mask id="SvgjsMask2033">
            <rect width="1920" height="1080" fill="#ffffff"></rect>
        </mask>
        <radialGradient cx="0%" cy="0%" r="2202.91" gradientUnits="userSpaceOnUse" id="SvgjsRadialGradient2034">
            <stop stop-color="rgba(0, 255, 42, 0.1)" offset="0"></stop>
            <stop stop-color="rgba(0, 0, 0, 1)" offset="1"></stop>
        </radialGradient>
        <style>
            @keyframes float1 {
                    0%{transform: translate(0, 0)}
                    50%{transform: translate(-10px, 0)}
                    100%{transform: translate(0, 0)}
                }

                .triangle-float1 {
                    animation: float1 5s infinite;
                }

                @keyframes float2 {
                    0%{transform: translate(0, 0)}
                    50%{transform: translate(-5px, -5px)}
                    100%{transform: translate(0, 0)}
                }

                .triangle-float2 {
                    animation: float2 4s infinite;
                }

                @keyframes float3 {
                    0%{transform: translate(0, 0)}
                    50%{transform: translate(0, -10px)}
                    100%{transform: translate(0, 0)}
                }

                .triangle-float3 {
                    animation: float3 6s infinite;
                }
        </style>
    </defs>
</svg>