<svg xmlns="http://www.w3.org/2000/svg" version="1.1" xmlns:xlink="http://www.w3.org/1999/xlink" xmlns:svgjs="http://svgjs.dev/svgjs" viewBox="0 0 800 800" opacity="1" width="800" height="800"><g stroke-width="10" stroke="hsla(209, 100%, 50%, 1.00)" fill="none"><rect width="200" height="25" x="-100" y="-12.5" stroke="none" fill="hsla(316, 100%, 50%, 1.00)" rx="12.5"></rect><rect width="25" height="200" x="-12.5" y="-100" stroke="none" fill="hsla(316, 100%, 50%, 1.00)" rx="12.5"></rect><rect width="200" height="25" x="300" y="-12.5" stroke="none" fill="hsla(209, 100%, 50%, 1.00)" rx="12.5"></rect><rect width="25" height="200" x="387.5" y="-100" stroke="none" fill="hsla(209, 100%, 50%, 1.00)" rx="12.5"></rect><rect width="200" height="25" x="700" y="-12.5" stroke="none" fill="hsla(316, 100%, 50%, 1.00)" rx="12.5"></rect><rect width="25" height="200" x="787.5" y="-100" stroke="none" fill="hsla(316, 100%, 50%, 1.00)" rx="12.5"></rect><rect width="200" height="25" x="-100" y="387.5" stroke="none" fill="hsla(209, 100%, 50%, 1.00)" rx="12.5"></rect><rect width="25" height="200" x="-12.5" y="300" stroke="none" fill="hsla(209, 100%, 50%, 1.00)" rx="12.5"></rect><rect width="200" height="25" x="300" y="387.5" stroke="none" fill="hsla(316, 100%, 50%, 1.00)" rx="12.5"></rect><rect width="25" height="200" x="387.5" y="300" stroke="none" fill="hsla(316, 100%, 50%, 1.00)" rx="12.5"></rect><rect width="200" height="25" x="700" y="387.5" stroke="none" fill="hsla(209, 100%, 50%, 1.00)" rx="12.5"></rect><rect width="25" height="200" x="787.5" y="300" stroke="none" fill="hsla(209, 100%, 50%, 1.00)" rx="12.5"></rect><rect width="200" height="25" x="-100" y="787.5" stroke="none" fill="hsla(316, 100%, 50%, 1.00)" rx="12.5"></rect><rect width="25" height="200" x="-12.5" y="700" stroke="none" fill="hsla(316, 100%, 50%, 1.00)" rx="12.5"></rect><rect width="200" height="25" x="300" y="787.5" stroke="none" fill="hsla(209, 100%, 50%, 1.00)" rx="12.5"></rect><rect width="25" height="200" x="387.5" y="700" stroke="none" fill="hsla(209, 100%, 50%, 1.00)" rx="12.5"></rect><rect width="200" height="25" x="700" y="787.5" stroke="none" fill="hsla(316, 100%, 50%, 1.00)" rx="12.5"></rect><rect width="25" height="200" x="787.5" y="700" stroke="none" fill="hsla(316, 100%, 50%, 1.00)" rx="12.5"></rect></g></svg>